<svg xmlns="http://www.w3.org/2000/svg" viewBox="-12.57 -26.40 500 500" width="500" height="500">
<!-- ShoMetrics filled logo source of truth.
     Do not edit generated copies in hub or Windows asset folders.
     Glow = centre radial bloom (light from the circle's centre) + wide stroke
     glow + tight core. Ground #0a0e18, ink #e9f1ff, accent #9ec5ff.
     Values tuned in the glow-match comparison tool. -->
<defs>
	<radialGradient id="shometrics-logo-bloom" cx="237.43" cy="223.6" r="211" gradientUnits="userSpaceOnUse">
		<stop offset="0%"   stop-color="#dcebff" stop-opacity="0.12"/>
		<stop offset="38%"  stop-color="#9ec5ff" stop-opacity="0.058"/>
		<stop offset="70%"  stop-color="#9ec5ff" stop-opacity="0.017"/>
		<stop offset="100%" stop-color="#9ec5ff" stop-opacity="0"/>
	</radialGradient>
	<filter id="shometrics-logo-stroke-glow" x="-70%" y="-70%" width="240%" height="240%" color-interpolation-filters="sRGB">
		<feGaussianBlur in="SourceAlpha" stdDeviation="42" result="wA"/>
		<feFlood flood-color="#9ec5ff" flood-opacity="0.78" result="wC"/>
		<feComposite in="wC" in2="wA" operator="in" result="wide"/>
		<feGaussianBlur in="SourceAlpha" stdDeviation="5" result="cA"/>
		<feFlood flood-color="#dcefff" flood-opacity="0.52" result="cC"/>
		<feComposite in="cC" in2="cA" operator="in" result="core"/>
		<feMerge>
			<feMergeNode in="wide"/>
			<feMergeNode in="core"/>
			<feMergeNode in="SourceGraphic"/>
		</feMerge>
	</filter>
</defs>
<rect x="-12.57" y="-26.40" width="500" height="500" fill="#0a0e18"/>
<circle cx="237.43" cy="223.6" r="241" fill="url(#shometrics-logo-bloom)"/>
<g filter="url(#shometrics-logo-stroke-glow)">
	<path fill="#e9f1ff" stroke="none" d="
M351.628967,363.661530
	C324.194733,386.574677 292.620575,399.404785 257.778168,403.018005
	C209.500671,408.024536 166.245651,394.364960 128.330185,364.093719
	C125.984886,362.221222 123.421089,364.042816 120.922989,361.752472
	C102.219696,344.604950 87.613403,324.614136 77.334595,301.436981
	C76.872940,300.395996 76.207336,299.384460 76.699821,298.066132
	C78.874069,297.343231 78.624084,299.847839 79.831528,300.423767
	C80.521446,300.135590 80.015953,299.681061 79.873917,299.358368
	C76.049171,290.668945 71.475578,282.069275 69.880196,272.764526
	C66.470512,252.878174 62.672333,233.084778 64.435532,212.524841
	C69.449585,154.057922 96.813995,108.541641 143.011398,73.591431
	C152.329910,66.541588 162.579636,60.912186 173.435913,56.499256
	C175.509995,55.656170 177.600189,54.301167 179.897217,55.231358
	C181.226120,56.911472 179.013916,58.025555 179.515671,59.989376
	C185.669998,58.099907 191.583969,55.990768 197.649048,54.494011
	C205.832199,52.474537 213.958481,50.241302 222.671555,51.481117
	C229.909149,52.510979 237.271759,50.943920 244.615601,51.574463
	C266.625671,53.464252 287.792328,58.408302 308.559418,66.171951
	C318.571381,69.914879 328.253479,73.586792 337.059753,79.732483
	C368.254517,101.502548 389.007721,130.885056 401.256683,166.617966
	C404.071838,174.830292 405.929779,183.275970 407.772369,191.731293
	C408.153107,193.478470 408.837921,195.280869 406.676666,198.556992
	C398.538055,164.384155 382.003510,136.120972 357.937347,112.268646
	C368.524384,127.113144 378.436005,142.299515 383.494812,160.216370
	C373.179443,137.500931 357.934570,118.820274 338.504639,103.479584
	C319.154388,88.201759 297.705658,77.827766 273.137177,74.833191
	C292.346222,87.679153 314.932861,94.742828 331.678589,111.514183
	C339.122162,118.969139 345.975464,126.858742 352.102386,135.400208
	C352.852356,136.445755 353.745758,137.538910 353.370789,139.315826
	C351.333313,139.894882 350.598419,138.129791 349.645142,136.993896
	C328.948303,112.331841 303.386200,95.226395 271.573395,89.079926
	C228.517883,80.761292 189.556747,90.669853 155.496826,118.343506
	C129.956467,139.095016 114.556107,166.178146 107.947067,198.301727
	C106.776047,203.993530 106.245964,209.815338 105.347694,215.565826
	C104.848564,218.761185 106.707184,222.632614 102.625359,224.898682
	C102.173988,225.149261 102.335182,226.809860 102.476860,227.777786
	C107.844139,264.445801 118.842827,298.549255 147.246445,324.523804
	C168.921661,344.345398 194.512619,355.858398 223.567108,359.738220
	C252.545380,363.607849 280.174072,359.078552 305.515747,344.452301
	C334.720367,327.596527 356.060791,303.560730 367.914825,271.613220
	C368.923645,268.894318 370.101807,266.238281 371.511932,262.794495
	C373.400696,269.238373 366.713715,285.647217 351.556000,313.457001
	C352.320068,314.795532 355.237030,315.114594 353.952820,317.911377
	C377.993652,291.912567 386.910645,260.116882 390.862854,225.341492
	C396.018799,233.349594 386.764191,277.934753 377.757629,297.152710
	C367.131622,319.826111 350.849670,337.773346 332.399017,354.169922
	C339.776489,350.417572 346.492188,345.740326 352.108582,339.686890
	C366.870239,323.776672 378.101013,305.705719 385.378357,285.172882
	C388.326080,276.855957 391.392761,268.590546 393.867004,260.114410
	C394.205933,258.953400 394.295807,257.459473 395.777405,256.864380
	C401.164612,276.122284 367.433838,334.699768 337.876770,358.310120
	C305.159058,384.445099 267.104523,393.644043 226.222305,394.374695
	C266.137573,398.809998 302.049713,388.209656 334.706482,365.579865
	C348.192291,356.234680 359.603149,344.747498 370.644135,332.563690
	C380.803070,321.353210 389.299774,309.213531 396.971161,296.394989
	C399.742340,291.764496 401.056732,286.269226 403.108002,281.197723
	C404.062836,278.837036 404.349304,276.078186 406.711029,274.201508
	C410.669312,289.487549 380.155518,338.908630 351.628967,363.661530
M107.364967,114.852066
	C88.341362,139.499863 76.743317,167.263657 72.697655,198.122406
	C71.982674,203.576004 71.805962,209.147980 73.612045,214.813126
	C76.263618,168.576019 95.336235,129.753174 126.008385,95.973694
	C118.847496,101.135544 113.442986,107.830643 107.364967,114.852066
z"/>
	<path fill="#9ec5ff" stroke="none" d="
M279.417297,252.297958
	C275.985504,264.719910 272.640717,276.745667 269.285400,288.768524
	C268.838074,290.371429 268.393188,291.978851 267.846252,293.549042
	C267.229187,295.320618 266.436615,297.134857 264.163086,297.009216
	C261.893494,296.883820 261.253235,294.990295 260.860809,293.168793
	C259.109833,285.041260 257.404388,276.903717 255.722443,268.761536
	C250.674820,244.326187 245.668152,219.882309 240.574081,195.456650
	C240.082016,193.097290 239.936569,190.544250 237.647522,187.728897
	C235.423996,196.875580 233.141479,205.303101 231.349289,213.833618
	C227.381439,232.720078 223.010742,251.509247 218.350769,270.233887
	C218.029190,271.526062 217.712433,272.821014 217.334290,274.097168
	C216.617523,276.516113 215.322159,278.324768 212.492676,278.315308
	C209.801529,278.306305 208.790710,276.370178 208.069138,274.250244
	C203.938339,262.114075 199.867249,249.957520 195.721008,237.826660
	C194.543762,234.382294 193.182983,231.000671 191.573044,226.699860
	C188.252228,231.452103 186.726334,236.131516 185.175598,240.671555
	C183.481598,245.631027 180.817505,247.546738 175.326859,247.504074
	C158.996109,247.377213 142.718445,246.515198 126.444031,245.353943
	C124.500656,245.215256 121.900558,245.653625 121.761078,242.889191
	C121.603897,239.774323 124.494347,239.902527 126.510162,239.833069
	C140.647873,239.346008 154.725632,237.295212 168.879623,237.785461
	C174.160126,237.968353 176.716278,236.108337 178.325317,231.252716
	C180.889038,223.516266 183.991989,215.957718 186.902039,208.337341
	C187.745499,206.128616 188.676193,203.800186 191.557663,203.798050
	C194.585938,203.795792 195.128738,206.379272 195.896500,208.550232
	C200.336563,221.105316 204.761337,233.665939 209.135864,246.243942
	C209.735565,247.968246 210.179291,249.729919 211.959930,251.902573
	C214.281296,241.509308 216.476883,231.708008 218.658981,221.903717
	C223.823822,198.697754 228.978745,175.489594 234.152542,152.285629
	C234.441666,150.988968 234.831955,149.711716 235.234299,148.444214
	C235.765213,146.771698 236.650070,145.234558 238.591385,145.234955
	C240.624344,145.235352 241.349030,146.948868 241.738861,148.603195
	C243.263550,155.073364 244.810532,161.541489 246.152679,168.050888
	C251.958450,196.209091 257.684204,224.383789 263.482635,252.543518
	C263.837097,254.264908 264.049591,256.204254 266.094910,257.164276
	C268.278290,256.180969 268.180695,253.957962 268.746368,252.169250
	C273.163544,238.200867 277.527130,224.215530 281.916748,210.238403
	C282.265778,209.126999 282.628204,208.013184 283.086182,206.944077
	C283.846252,205.169739 284.975830,203.795074 287.126007,203.743103
	C289.368042,203.688919 290.403290,205.231995 291.090790,206.975601
	C293.472565,213.016037 295.764435,219.091965 298.078064,225.159103
	C298.552429,226.403046 298.897583,227.700531 299.430420,228.917236
	C303.894592,239.110703 301.331726,237.297226 312.161896,237.715012
	C325.629822,238.234573 339.087738,239.022446 352.546661,239.755493
	C354.504303,239.862106 357.049591,239.882904 357.212036,242.476746
	C357.386993,245.271347 354.885590,245.152695 352.879791,245.324661
	C336.113678,246.762161 319.324921,247.453659 302.490631,247.438477
	C298.089508,247.434494 295.986603,245.906128 294.444397,241.869843
	C292.651154,237.176559 291.301239,232.162338 287.687225,227.056320
	C283.690857,235.629623 282.049591,243.925354 279.417297,252.297958
z"/>
	<path fill="#e9f1ff" stroke="none" d="
M273.106079,45.641384
	C276.707794,46.759388 280.234802,46.971039 282.974335,49.082790
	C282.573090,50.229549 281.879089,50.406097 281.259308,50.280243
	C254.075119,44.760235 227.009491,47.166573 199.962372,51.409924
	C199.591690,51.468082 199.128342,50.935566 198.790619,50.729095
	C203.770157,43.017120 248.483826,39.167633 273.106079,45.641384
z"/>
	<path fill="#e9f1ff" stroke="none" d="
M411.045837,216.452820
	C410.952484,221.008926 412.194244,225.261749 409.724060,229.189728
	C408.021484,222.593399 407.472290,215.962967 407.979553,208.442764
	C411.490479,210.738785 409.895721,213.851288 411.045837,216.452820
z"/>
</g>
</svg>
